# xmcd CD database file
#
# Track frame offsets:
#	150
#	21845
#	36402
#	54422
#	76207
#	96542
#	116085
#	131172
#	145985
#	161407
#
# Disc length: 2374 seconds
#
# Revision: 0
# Processed by: cddbd v1.4PL0 Copyright (c) Steve Scherf et al.
# Submitted via: CDex 1.40Beta9
#
DISCID=8a09440a
DTITLE=The Love Doctor (Lewis Clark) - Doctor of Love
DYEAR=2002
DGENRE=Blues
TTITLE0=Soaking Wet Pillow
TTITLE1=Doctor of Love
TTITLE2=Somebody's Child
TTITLE3=Run Away
TTITLE4=Slow Roll It
TTITLE5=My Forever Love
TTITLE6=Everyday Woman
TTITLE7=Don't Quit
TTITLE8=Love With A Feeling
TTITLE9=Don't Let It Stop Your Party
EXTD=YEAR: 2002 ID3G: 0
EXTT0=
EXTT1=
EXTT2=
EXTT3=
EXTT4=
EXTT5=
EXTT6=
EXTT7=
EXTT8=
EXTT9=
PLAYORDER=
